<svg aria-hidden="true" style="position: absolute; width: 0; height: 0; overflow: hidden;" version="1.1" xmlns="http://www.w3.org/2000/svg" xmlns:xlink="http://www.w3.org/1999/xlink">
<defs>
<symbol id="icon-angle-up" viewBox="0 0 18 28">
<path d="M16.797 18.5c0 0.125-0.063 0.266-0.156 0.359l-0.781 0.781c-0.094 0.094-0.219 0.156-0.359 0.156-0.125 0-0.266-0.063-0.359-0.156l-6.141-6.141-6.141 6.141c-0.094 0.094-0.234 0.156-0.359 0.156s-0.266-0.063-0.359-0.156l-0.781-0.781c-0.094-0.094-0.156-0.234-0.156-0.359s0.063-0.266 0.156-0.359l7.281-7.281c0.094-0.094 0.234-0.156 0.359-0.156s0.266 0.063 0.359 0.156l7.281 7.281c0.094 0.094 0.156 0.234 0.156 0.359z"></path>
</symbol>
<symbol id="icon-angle-right" viewBox="0 0 16 28">
<path d="M9.297 15c0 0.125-0.063 0.266-0.156 0.359l-7.281 7.281c-0.094 0.094-0.234 0.156-0.359 0.156s-0.266-0.063-0.359-0.156l-0.781-0.781c-0.094-0.094-0.156-0.234-0.156-0.359s0.063-0.266 0.156-0.359l6.141-6.141-6.141-6.141c-0.094-0.094-0.156-0.234-0.156-0.359s0.063-0.266 0.156-0.359l0.781-0.781c0.094-0.094 0.234-0.156 0.359-0.156s0.266 0.063 0.359 0.156l7.281 7.281c0.094 0.094 0.156 0.234 0.156 0.359zM15.297 15c0 0.125-0.063 0.266-0.156 0.359l-7.281 7.281c-0.094 0.094-0.234 0.156-0.359 0.156s-0.266-0.063-0.359-0.156l-0.781-0.781c-0.094-0.094-0.156-0.234-0.156-0.359s0.063-0.266 0.156-0.359l6.141-6.141-6.141-6.141c-0.094-0.094-0.156-0.234-0.156-0.359s0.063-0.266 0.156-0.359l0.781-0.781c0.094-0.094 0.234-0.156 0.359-0.156s0.266 0.063 0.359 0.156l7.281 7.281c0.094 0.094 0.156 0.234 0.156 0.359z"></path>
</symbol>
<symbol id="icon-web" viewBox="0 0 32 32">
<path d="M4.259 23.467c-2.35 0-4.259 1.917-4.259 4.252 0 2.349 1.909 4.244 4.259 4.244 2.358 0 4.265-1.895 4.265-4.244-0-2.336-1.907-4.252-4.265-4.252zM0.005 10.873v6.133c3.993 0 7.749 1.562 10.577 4.391 2.825 2.822 4.384 6.595 4.384 10.603h6.16c-0-11.651-9.478-21.127-21.121-21.127zM0.012 0v6.136c14.243 0 25.836 11.604 25.836 25.864h6.152c0-17.64-14.352-32-31.988-32z"></path>
</symbol>
<symbol id="icon-facebook" viewBox="0 0 28 32">
<path d="M25 2h-22c-1.657 0-3 1.343-3 3v0 22c0 1.657 1.343 3 3 3v0h8.578v-9.519h-3.938v-4.481h3.938v-3.415c0-3.884 2.313-6.030 5.854-6.030 1.696 0 3.47 0.303 3.47 0.303v3.813h-1.954c-1.926 0-2.526 1.195-2.526 2.421v2.909h4.299l-0.688 4.481h-3.611v9.519h8.578c1.657 0 3-1.343 3-3v0-22c0-1.657-1.343-3-3-3v0z"></path>
</symbol>
<symbol id="icon-twitter" viewBox="0 0 32 32">
<path d="M28.711 9.482c0.020 0.284 0.020 0.569 0.020 0.853 0 8.67-6.599 18.66-18.66 18.66-3.716 0-7.168-1.076-10.071-2.944 0.528 0.061 1.036 0.081 1.584 0.081 3.066 0 5.888-1.035 8.142-2.802-2.883-0.061-5.3-1.949-6.132-4.548 0.406 0.061 0.812 0.102 1.239 0.102 0.589 0 1.178-0.081 1.726-0.223-3.005-0.609-5.259-3.249-5.259-6.437v-0.081c0.873 0.487 1.888 0.792 2.964 0.832-1.766-1.178-2.924-3.188-2.924-5.462 0-1.218 0.325-2.335 0.893-3.31 3.228 3.98 8.081 6.579 13.523 6.863-0.101-0.487-0.162-0.995-0.162-1.502 0-3.614 2.924-6.558 6.558-6.558 1.888 0 3.594 0.792 4.792 2.071 1.482-0.284 2.904-0.832 4.162-1.584-0.487 1.523-1.523 2.802-2.883 3.614 1.32-0.142 2.599-0.508 3.777-1.015-0.893 1.299-2.010 2.457-3.289 3.391z"></path>
</symbol>
<symbol id="icon-download" viewBox="0 0 24 32">
<path d="M12.912 22.319c-0.719 0.637-1.863 0.619-2.563-0.038l-9.15-8.6c-0.575-0.569-0.544-1.456 0.069-1.988v0c0.613-0.537 1.575-0.512 2.156 0.050l6.463 6.219v-17.962h3.45v17.962l7.444-6.469c0.531-0.431 1.675-0.394 2.15 0.088v0c0.475 0.475 0.462 1.45-0.025 1.912l-9.994 8.825zM24 26.75h-24v2.813h24v-2.813z"></path>
</symbol>
</defs>
</svg>
